<?xml version="1.0" standalone="no"?>
<!DOCTYPE svg PUBLIC "-//W3C//DTD SVG 20010904//EN"
 "http://www.w3.org/TR/2001/REC-SVG-20010904/DTD/svg10.dtd">
<svg version="1.0" xmlns="http://www.w3.org/2000/svg"
 width="300.000000pt" height="300.000000pt" viewBox="0 0 300.000000 300.000000"
 preserveAspectRatio="xMidYMid meet">

<g transform="translate(0.000000,300.000000) scale(0.100000,-0.100000)"
fill="#000000" stroke="none">
<path d="M1487 2794 c-4 -4 -7 -29 -7 -56 l0 -48 -43 0 c-24 0 -48 -5 -55 -12
-7 -7 -12 -39 -12 -73 0 -34 5 -66 12 -73 7 -7 31 -12 55 -12 l43 0 0 -55 0
-55 -188 0 c-184 0 -189 -1 -210 -23 -13 -13 -22 -36 -22 -54 0 -27 151 -537
162 -549 3 -2 25 7 50 21 48 27 183 65 230 65 l28 0 0 -594 0 -594 -34 -6
c-22 -4 -47 -21 -70 -46 -56 -62 -60 -140 -9 -201 35 -41 74 -59 128 -59 147
0 217 167 113 269 -18 17 -46 35 -63 39 l-30 8 -3 594 -2 593 72 -6 c80 -6
177 -36 221 -68 16 -11 30 -19 33 -17 9 10 164 529 164 551 0 13 -9 36 -21 51
l-20 26 -190 0 -189 0 0 54 0 55 48 3 47 3 0 80 0 80 -47 3 -47 3 -3 52 -3 52
-65 3 c-36 2 -69 0 -73 -4z"/>
<path d="M468 1754 c-5 -4 -8 -252 -8 -551 l0 -543 65 0 65 0 0 170 0 170 163
0 c89 0 172 3 184 6 18 5 38 -17 145 -169 l123 -176 68 0 c52 -1 66 2 61 12
-4 6 -61 87 -126 179 -65 91 -118 170 -118 175 0 4 25 21 55 37 99 52 158 137
175 254 29 208 -72 359 -283 419 -58 16 -556 32 -569 17z m562 -130 c69 -23
140 -91 158 -150 15 -51 15 -136 1 -188 -14 -52 -79 -119 -142 -147 -48 -22
-68 -24 -254 -27 l-203 -4 0 272 0 272 193 -4 c153 -4 203 -9 247 -24z"/>
<path d="M2097 1704 c-159 -38 -247 -134 -255 -277 -5 -86 16 -145 72 -202 49
-48 124 -81 290 -125 168 -44 226 -68 267 -109 82 -82 50 -210 -65 -265 -19
-9 -68 -20 -108 -26 -147 -18 -309 24 -406 105 l-31 26 -25 -50 -26 -50 32
-26 c85 -72 229 -115 382 -115 271 0 430 125 413 326 -6 77 -37 137 -94 180
-52 39 -119 65 -286 110 -70 19 -150 43 -178 55 -156 68 -158 245 -2 319 60
29 205 39 284 20 42 -10 151 -54 189 -77 6 -3 40 77 40 94 0 17 -115 70 -191
88 -79 18 -224 18 -302 -1z"/>
</g>
</svg>
